<?xml version="1.0" standalone="no"?>
<!DOCTYPE svg PUBLIC "-//W3C//DTD SVG 1.1//EN" "http://www.w3.org/Graphics/SVG/1.1/DTD/svg11.dtd">
<svg width="96mm" height="106mm" viewBox="0 -106 96 106" xmlns="http://www.w3.org/2000/svg" version="1.1">
<title>OpenSCAD Model</title>
<path d="
M 96,-106 L 0,-106 L 0,-0 L 96,-0 z
M 83.573,-77.7634 L 85.073,-78.8532 L 86.927,-78.8532 L 88.427,-77.7634 L 89,-76 L 88.427,-74.2366
 L 86.927,-73.1468 L 85.073,-73.1468 L 83.573,-74.2366 L 83,-76 z
M 85.073,-7.14682 L 83.573,-8.23663 L 83,-10 L 83.573,-11.7634 L 85.073,-12.8532 L 86.927,-12.8532
 L 88.427,-11.7634 L 89,-10 L 88.427,-8.23663 L 86.927,-7.14682 z
M 9.07294,-7.14682 L 7.57294,-8.23663 L 7,-10 L 7.57294,-11.7634 L 9.07294,-12.8532 L 10.927,-12.8532
 L 12.427,-11.7634 L 13,-10 L 12.427,-8.23663 L 10.927,-7.14682 z
M 9.07294,-73.1468 L 7.57294,-74.2366 L 7,-76 L 7.57294,-77.7634 L 9.07294,-78.8532 L 10.927,-78.8532
 L 12.427,-77.7634 L 13,-76 L 12.427,-74.2366 L 10.927,-73.1468 z
" stroke="black" fill="lightgray" stroke-width="0.5"/>
</svg>
